<?xml version="1.0" standalone="no"?>
<!DOCTYPE svg PUBLIC "-//W3C//DTD SVG 20010904//EN" "http://www.w3.org/TR/2001/REC-SVG-20010904/DTD/svg10.dtd">
<!-- Created using Krita: https://krita.org -->
<svg xmlns="http://www.w3.org/2000/svg" 
    xmlns:xlink="http://www.w3.org/1999/xlink"
    xmlns:krita="http://krita.org/namespaces/svg/krita"
    xmlns:sodipodi="http://sodipodi.sourceforge.net/DTD/sodipodi-0.dtd"
    width="240pt"
    height="240pt"
    viewBox="0 0 240 240">
<defs/>
<path id="shape0" transform="matrix(1.625 0 0 1.625 81.03 3.84)" fill="#000000" fill-rule="evenodd" stroke="#000000" stroke-width="0.24" stroke-linecap="square" stroke-linejoin="bevel" d="M24 0C24.1906 16.3318 16.0492 24.1879 0 24C15.4917 24.1994 24.0246 31.6445 24 48C24.0642 32.3732 31.4998 23.8307 48 24C31.9897 24.2276 23.9897 16.2276 24 0Z" sodipodi:nodetypes="ccccc"/><path id="shape01" transform="matrix(1.625 0 0 1.625 3.02636283488897 42.84)" fill="#000000" fill-rule="evenodd" stroke="#000000" stroke-width="0.24" stroke-linecap="square" stroke-linejoin="bevel" d="M36.0022 0C20.8906 4.64904 0.233855 12.031 0.00223826 24C-0.233861 28.3063 18.2877 29.9016 18.0022 30C18.2695 29.8314 0.296269 23.928 12.0622 18C12.2139 18.0573 24.3339 12.209 42.0022 12C37.3049 9.10003 35.3049 5.10003 36.0022 0Z" sodipodi:nodetypes="cccccc"/><path id="shape02" transform="matrix(-1.625 0 0 1.625 237.033637165111 42.84)" fill="#000000" fill-rule="evenodd" stroke="#000000" stroke-width="0.24" stroke-linecap="square" stroke-linejoin="bevel" d="M36.0022 0C20.8906 4.64904 0.233855 12.031 0.00223826 24C-0.233861 28.3063 18.2877 29.9016 18.0022 30C18.2695 29.8314 0.296269 23.928 12.0622 18C12.2139 18.0573 24.3339 12.209 42.0022 12C37.3049 9.10003 35.3049 5.10003 36.0022 0Z" sodipodi:nodetypes="cccccc"/><path id="shape03" transform="matrix(1.896 0 0 1.896 51.7589907692308 99.6087913645302)" fill="#003052" fill-rule="evenodd" stroke="#003052" stroke-width="0.24" stroke-linecap="square" stroke-linejoin="bevel" d="M36 60.05C30.1663 54.1892 18.5205 47.9128 0 48.05L0 0.0500078C11.9286 -0.0196873 24.5841 -0.161561 36 12.05C48.4758 0.479307 60.0916 -0.252861 72 0.0500078L72 48.05C55.2722 48.1125 43.2722 52.1125 36 60.05Z" sodipodi:nodetypes="ccccccc"/><path id="shape04" transform="matrix(1.896 0 0 1.896 51.7589907692308 108.70959136453)" fill="#003052" fill-rule="evenodd" stroke="#003052" stroke-width="0.24" stroke-linecap="square" stroke-linejoin="bevel" d="M36 60.05C30.1663 54.1892 18.5205 47.9128 0 48.05L0 0.0500078C11.9286 -0.0196873 24.5841 -0.161561 36 12.05C48.4758 0.479307 60.0916 -0.252861 72 0.0500078L72 48.05C55.2722 48.1125 43.2722 52.1125 36 60.05Z" sodipodi:nodetypes="ccccccc"/><path id="shape05" transform="matrix(1.80196304139878 0 0 1.9232738078876 55.1443202506351 104.164373269033)" fill="#fec28e" fill-rule="evenodd" stroke="#fec28e" stroke-width="0.24" stroke-linecap="square" stroke-linejoin="bevel" d="M36 60.05C30.1663 54.1892 18.5205 47.9128 0 48.05L0 0.0500078C11.9286 -0.0196873 24.5841 -0.161561 36 12.05C48.4758 0.479307 60.0916 -0.252861 72 0.0500078L72 48.05C55.2722 48.1125 43.2722 52.1125 36 60.05Z" sodipodi:nodetypes="ccccccc"/><path id="shape06" transform="matrix(1.65899998612267 0 0 1.896 60.2909907813383 104.159191340019)" fill="#fedabb" fill-rule="evenodd" stroke="#fedabb" stroke-width="0.24" stroke-linecap="square" stroke-linejoin="bevel" d="M36 60.05C30.1663 54.1892 18.5205 47.9128 0 48.05L0 0.0500078C11.9286 -0.0196873 24.5841 -0.161561 36 12.05C48.4758 0.479307 60.0916 -0.252861 72 0.0500078L72 48.05C55.2722 48.1125 43.2722 52.1125 36 60.05Z" sodipodi:nodetypes="ccccccc"/>
</svg>
